<svg aria-hidden="true" style="position: absolute; width: 0; height: 0; overflow: hidden;" version="1.1" xmlns="http://www.w3.org/2000/svg" xmlns:xlink="http://www.w3.org/1999/xlink">
<defs>
<symbol id="icon-ep_arrow-right" viewBox="0 0 32 32">
<path fill="#f3f3f3" style="fill: var(--color1, #f3f3f3)" d="M4.666 21.348c0.179 0.174 0.418 0.272 0.668 0.272s0.489-0.098 0.668-0.272l9.998-9.746 9.996 9.746c0.179 0.174 0.418 0.272 0.668 0.272s0.489-0.098 0.668-0.272c0.087-0.085 0.156-0.186 0.204-0.298s0.072-0.232 0.072-0.354c0-0.122-0.024-0.242-0.072-0.354s-0.116-0.213-0.204-0.298l-10.634-10.364c-0.187-0.182-0.437-0.284-0.698-0.284s-0.511 0.102-0.698 0.284l-10.634 10.364c-0.087 0.085-0.156 0.186-0.204 0.298s-0.072 0.232-0.072 0.354c0 0.122 0.024 0.242 0.072 0.354s0.116 0.213 0.204 0.298h-0.002z"></path>
</symbol>
</defs>
</svg>
